<?xml version="1.0"?><svg xmlns="http://www.w3.org/2000/svg" xmlns:svg="http://www.w3.org/2000/svg" version="1.1" viewBox="-2 -2 86 86"><g class="layer">
  <title>Layer 1</title><path d="M1 22h2h2a1,1 0 0,1 1,1a1,1 0 0,1 -1,1a1,1 0 0,0 -1,1a1,1 0 0,1 -1,1a1,1 0 0,0 -1,1v2a1,1 0 0,1 -1,1a1,1 0 0,1 -1,-1v-2v-2v-2a1,1 0 0,1 1,-1M1 34h2a1,1 0 0,0 1,-1a1,1 0 0,1 1,-1a1,1 0 0,1 1,1v2a1,1 0 0,1 -1,1a1,1 0 0,0 -1,1a1,1 0 0,0 1,1a1,1 0 0,0 1,-1a1,1 0 0,1 1,-1a1,1 0 0,1 1,1v2a1,1 0 0,1 -1,1h-2a1,1 0 0,0 -1,1a1,1 0 0,0 1,1h2a1,1 0 0,1 1,1a1,1 0 0,0 1,1a1,1 0 0,0 1,-1a1,1 0 0,0 -1,-1a1,1 0 0,1 -1,-1a1,1 0 0,1 1,-1a1,1 0 0,0 1,-1v-2a1,1 0 0,1 1,-1h2a1,1 0 0,1 1,1a1,1 0 0,1 -1,1a1,1 0 0,0 -1,1a1,1 0 0,0 1,1a1,1 0 0,0 1,-1a1,1 0 0,1 1,-1h2a1,1 0 0,1 1,1a1,1 0 0,1 -1,1a1,1 0 0,0 -1,1v2a1,1 0 0,1 -1,1a1,1 0 0,1 -1,-1a1,1 0 0,0 -1,-1a1,1 0 0,0 -1,1a1,1 0 0,0 1,1a1,1 0 0,1 1,1a1,1 0 0,1 -1,1h-2h-2h-2h-2a1,1 0 0,1 -1,-1a1,1 0 0,0 -1,-1a1,1 0 0,1 -1,-1v-2v-2a1,1 0 0,0 -1,-1a1,1 0 0,1 -1,-1v-2a1,1 0 0,1 1,-1M1 44a1,1 0 0,1 1,1a1,1 0 0,0 1,1a1,1 0 0,1 1,1a1,1 0 0,1 -1,1h-2a1,1 0 0,1 -1,-1v-2a1,1 0 0,1 1,-1M1 50a1,1 0 0,1 1,1a1,1 0 0,0 1,1h2a1,1 0 0,0 1,-1a1,1 0 0,1 1,-1a1,1 0 0,1 1,1v2a1,1 0 0,0 1,1a1,1 0 0,0 1,-1a1,1 0 0,1 1,-1h2a1,1 0 0,1 1,1a1,1 0 0,1 -1,1a1,1 0 0,0 -1,1a1,1 0 0,1 -1,1a1,1 0 0,0 -1,1v2a1,1 0 0,1 -1,1a1,1 0 0,1 -1,-1a1,1 0 0,0 -1,-1h-2a1,1 0 0,1 -1,-1v-2a1,1 0 0,0 -1,-1a1,1 0 0,0 -1,1a1,1 0 0,1 -1,1a1,1 0 0,1 -1,-1v-2v-2a1,1 0 0,1 1,-1M1 60a1,1 0 0,1 1,1a1,1 0 0,1 -1,1a1,1 0 0,1 -1,-1a1,1 0 0,1 1,-1M1 64a1,1 0 0,1 1,1a1,1 0 0,1 -1,1a1,1 0 0,1 -1,-1a1,1 0 0,1 1,-1M3 58a1,1 0 0,1 1,1a1,1 0 0,1 -1,1a1,1 0 0,1 -1,-1a1,1 0 0,1 1,-1M5 18a1,1 0 0,0 1,-1a1,1 0 0,1 1,-1a1,1 0 0,1 1,1v2a1,1 0 0,1 -1,1h-2a1,1 0 0,1 -1,-1a1,1 0 0,1 1,-1M5 26a1,1 0 0,0 1,-1a1,1 0 0,1 1,-1h2a1,1 0 0,1 1,1a1,1 0 0,1 -1,1a1,1 0 0,0 -1,1a1,1 0 0,0 1,1h2h2a1,1 0 0,1 1,1a1,1 0 0,1 -1,1h-2a1,1 0 0,0 -1,1a1,1 0 0,1 -1,1a1,1 0 0,1 -1,-1a1,1 0 0,0 -1,-1a1,1 0 0,1 -1,-1a1,1 0 0,0 -1,-1a1,1 0 0,1 -1,-1a1,1 0 0,1 1,-1M5 60a1,1 0 0,1 1,1v2a1,1 0 0,0 1,1a1,1 0 0,1 1,1a1,1 0 0,1 -1,1h-2a1,1 0 0,1 -1,-1v-2v-2a1,1 0 0,1 1,-1M9 62h2a1,1 0 0,1 1,1a1,1 0 0,0 1,1a1,1 0 0,0 1,-1a1,1 0 0,1 1,-1a1,1 0 0,0 1,-1a1,1 0 0,0 -1,-1a1,1 0 0,1 -1,-1a1,1 0 0,0 -1,-1a1,1 0 0,1 -1,-1a1,1 0 0,1 1,-1h2a1,1 0 0,1 1,1a1,1 0 0,0 1,1a1,1 0 0,0 1,-1a1,1 0 0,1 1,-1a1,1 0 0,1 1,1a1,1 0 0,0 1,1a1,1 0 0,0 1,-1a1,1 0 0,0 -1,-1a1,1 0 0,1 -1,-1a1,1 0 0,1 1,-1h2a1,1 0 0,1 1,1v2v2a1,1 0 0,1 -1,1a1,1 0 0,0 -1,1a1,1 0 0,1 -1,1a1,1 0 0,0 -1,1a1,1 0 0,0 1,1h2a1,1 0 0,1 1,1a1,1 0 0,1 -1,1h-2h-2a1,1 0 0,0 -1,1a1,1 0 0,1 -1,1a1,1 0 0,1 -1,-1a1,1 0 0,0 -1,-1h-2h-2a1,1 0 0,1 -1,-1a1,1 0 0,0 -1,-1a1,1 0 0,1 -1,-1a1,1 0 0,1 1,-1M11 22a1,1 0 0,1 1,1a1,1 0 0,1 -1,1a1,1 0 0,1 -1,-1a1,1 0 0,1 1,-1M11 48h2a1,1 0 0,0 1,-1a1,1 0 0,1 1,-1a1,1 0 0,1 1,1v2v2a1,1 0 0,1 -1,1a1,1 0 0,1 -1,-1a1,1 0 0,0 -1,-1h-2a1,1 0 0,1 -1,-1a1,1 0 0,1 1,-1M13 16a1,1 0 0,1 1,1a1,1 0 0,1 -1,1a1,1 0 0,1 -1,-1a1,1 0 0,1 1,-1M13 20h2a1,1 0 0,1 1,1a1,1 0 0,0 1,1a1,1 0 0,1 1,1a1,1 0 0,1 -1,1h-2a1,1 0 0,1 -1,-1a1,1 0 0,0 -1,-1a1,1 0 0,1 -1,-1a1,1 0 0,1 1,-1M13 24a1,1 0 0,1 1,1a1,1 0 0,1 -1,1a1,1 0 0,1 -1,-1a1,1 0 0,1 1,-1M13 32a1,1 0 0,0 1,-1a1,1 0 0,1 1,-1a1,1 0 0,0 1,-1a1,1 0 0,0 -1,-1a1,1 0 0,1 -1,-1a1,1 0 0,1 1,-1h2a1,1 0 0,0 1,-1a1,1 0 0,1 1,-1a1,1 0 0,1 1,1a1,1 0 0,0 1,1a1,1 0 0,1 1,1a1,1 0 0,1 -1,1h-2a1,1 0 0,0 -1,1v2a1,1 0 0,1 -1,1a1,1 0 0,0 -1,1a1,1 0 0,1 -1,1h-2a1,1 0 0,1 -1,-1a1,1 0 0,1 1,-1M13 60a1,1 0 0,1 1,1a1,1 0 0,1 -1,1a1,1 0 0,1 -1,-1a1,1 0 0,1 1,-1M17 0h2a1,1 0 0,1 1,1a1,1 0 0,1 -1,1a1,1 0 0,0 -1,1a1,1 0 0,1 -1,1a1,1 0 0,1 -1,-1v-2a1,1 0 0,1 1,-1M17 6h2a1,1 0 0,1 1,1a1,1 0 0,0 1,1a1,1 0 0,1 1,1v2v2v2a1,1 0 0,0 1,1a1,1 0 0,1 1,1v2v2a1,1 0 0,1 -1,1h-2h-2a1,1 0 0,1 -1,-1v-2v-2a1,1 0 0,1 1,-1a1,1 0 0,0 1,-1v-2a1,1 0 0,0 -1,-1a1,1 0 0,0 -1,1a1,1 0 0,1 -1,1a1,1 0 0,1 -1,-1v-2v-2v-2a1,1 0 0,1 1,-1M17 34h2h2a1,1 0 0,1 1,1a1,1 0 0,1 -1,1h-2h-2a1,1 0 0,1 -1,-1a1,1 0 0,1 1,-1M17 74a1,1 0 0,0 1,-1v-2v-2a1,1 0 0,1 1,-1h2a1,1 0 0,1 1,1a1,1 0 0,0 1,1a1,1 0 0,1 1,1a1,1 0 0,1 -1,1h-2a1,1 0 0,0 -1,1v2v2a1,1 0 0,1 -1,1a1,1 0 0,1 -1,-1a1,1 0 0,0 -1,-1a1,1 0 0,1 -1,-1a1,1 0 0,1 1,-1M19 46h2a1,1 0 0,1 1,1v2a1,1 0 0,1 -1,1a1,1 0 0,0 -1,1a1,1 0 0,1 -1,1a1,1 0 0,1 -1,-1v-2v-2a1,1 0 0,1 1,-1M21 4a1,1 0 0,0 1,-1v-2a1,1 0 0,1 1,-1h2a1,1 0 0,1 1,1a1,1 0 0,1 -1,1a1,1 0 0,0 -1,1a1,1 0 0,0 1,1a1,1 0 0,0 1,-1a1,1 0 0,1 1,-1a1,1 0 0,1 1,1a1,1 0 0,0 1,1a1,1 0 0,1 1,1v2a1,1 0 0,1 -1,1a1,1 0 0,1 -1,-1a1,1 0 0,0 -1,-1a1,1 0 0,0 -1,1a1,1 0 0,0 1,1a1,1 0 0,1 1,1a1,1 0 0,0 1,1a1,1 0 0,1 1,1v2a1,1 0 0,1 -1,1a1,1 0 0,1 -1,-1a1,1 0 0,0 -1,-1a1,1 0 0,1 -1,-1a1,1 0 0,0 -1,-1a1,1 0 0,1 -1,-1a1,1 0 0,0 -1,-1a1,1 0 0,1 -1,-1a1,1 0 0,0 -1,-1a1,1 0 0,1 -1,-1a1,1 0 0,1 1,-1M21 20a1,1 0 0,0 1,-1a1,1 0 0,0 -1,-1a1,1 0 0,0 -1,1a1,1 0 0,0 1,1M21 38a1,1 0 0,0 1,-1a1,1 0 0,1 1,-1h2h2a1,1 0 0,1 1,1v2a1,1 0 0,1 -1,1a1,1 0 0,0 -1,1a1,1 0 0,1 -1,1a1,1 0 0,0 -1,1a1,1 0 0,0 1,1h2a1,1 0 0,1 1,1v2v2a1,1 0 0,1 -1,1a1,1 0 0,1 -1,-1a1,1 0 0,0 -1,-1a1,1 0 0,1 -1,-1a1,1 0 0,0 -1,-1a1,1 0 0,1 -1,-1v-2v-2a1,1 0 0,0 -1,-1a1,1 0 0,1 -1,-1a1,1 0 0,1 1,-1M21 78a1,1 0 0,1 1,1v2a1,1 0 0,1 -1,1a1,1 0 0,1 -1,-1v-2a1,1 0 0,1 1,-1M23 32h2h2a1,1 0 0,1 1,1a1,1 0 0,1 -1,1h-2h-2a1,1 0 0,1 -1,-1a1,1 0 0,1 1,-1M23 50h2a1,1 0 0,1 1,1a1,1 0 0,1 -1,1h-2a1,1 0 0,1 -1,-1a1,1 0 0,1 1,-1M25 12a1,1 0 0,1 1,1v2a1,1 0 0,1 -1,1a1,1 0 0,1 -1,-1v-2a1,1 0 0,1 1,-1M25 22a1,1 0 0,1 1,1v2a1,1 0 0,1 -1,1a1,1 0 0,1 -1,-1v-2a1,1 0 0,1 1,-1M25 28h2a1,1 0 0,1 1,1a1,1 0 0,1 -1,1h-2a1,1 0 0,1 -1,-1a1,1 0 0,1 1,-1M25 60a1,1 0 0,1 1,1a1,1 0 0,0 1,1h2h2a1,1 0 0,1 1,1a1,1 0 0,0 1,1a1,1 0 0,1 1,1a1,1 0 0,1 -1,1a1,1 0 0,0 -1,1a1,1 0 0,1 -1,1a1,1 0 0,0 -1,1a1,1 0 0,1 -1,1h-2a1,1 0 0,1 -1,-1a1,1 0 0,1 1,-1a1,1 0 0,0 1,-1v-2a1,1 0 0,0 -1,-1h-2a1,1 0 0,1 -1,-1v-2a1,1 0 0,1 1,-1M25 66a1,1 0 0,1 1,1a1,1 0 0,1 -1,1a1,1 0 0,1 -1,-1a1,1 0 0,1 1,-1M25 74a1,1 0 0,0 1,-1a1,1 0 0,1 1,-1h2a1,1 0 0,1 1,1a1,1 0 0,1 -1,1a1,1 0 0,0 -1,1a1,1 0 0,1 -1,1h-2a1,1 0 0,1 -1,-1a1,1 0 0,1 1,-1M25 78h2a1,1 0 0,1 1,1v2a1,1 0 0,1 -1,1a1,1 0 0,1 -1,-1a1,1 0 0,0 -1,-1a1,1 0 0,1 -1,-1a1,1 0 0,1 1,-1M27 16a1,1 0 0,1 1,1a1,1 0 0,0 1,1h2h2h2a1,1 0 0,1 1,1a1,1 0 0,0 1,1h2a1,1 0 0,1 1,1a1,1 0 0,1 -1,1a1,1 0 0,0 -1,1v2a1,1 0 0,0 1,1h2h2h2a1,1 0 0,1 1,1a1,1 0 0,1 -1,1h-2h-2h-2h-2a1,1 0 0,1 -1,-1v-2v-2a1,1 0 0,0 -1,-1h-2h-2a1,1 0 0,0 -1,1a1,1 0 0,1 -1,1a1,1 0 0,1 -1,-1a1,1 0 0,0 -1,-1a1,1 0 0,1 -1,-1v-2v-2a1,1 0 0,1 1,-1M27 56h2h2a1,1 0 0,1 1,1a1,1 0 0,1 -1,1h-2h-2a1,1 0 0,1 -1,-1a1,1 0 0,1 1,-1M29 26a1,1 0 0,0 1,-1a1,1 0 0,1 1,-1h2a1,1 0 0,1 1,1v2a1,1 0 0,1 -1,1h-2h-2a1,1 0 0,1 -1,-1a1,1 0 0,1 1,-1M29 76a1,1 0 0,1 1,1a1,1 0 0,1 -1,1a1,1 0 0,1 -1,-1a1,1 0 0,1 1,-1M31 0a1,1 0 0,1 1,1a1,1 0 0,0 1,1h2a1,1 0 0,1 1,1v2a1,1 0 0,1 -1,1h-2a1,1 0 0,1 -1,-1a1,1 0 0,0 -1,-1a1,1 0 0,1 -1,-1v-2a1,1 0 0,1 1,-1M31 14a1,1 0 0,1 1,1a1,1 0 0,1 -1,1a1,1 0 0,1 -1,-1a1,1 0 0,1 1,-1M31 70a1,1 0 0,1 1,1a1,1 0 0,1 -1,1a1,1 0 0,1 -1,-1a1,1 0 0,1 1,-1M33 12a1,1 0 0,1 1,1a1,1 0 0,1 -1,1a1,1 0 0,1 -1,-1a1,1 0 0,1 1,-1M33 68a1,1 0 0,1 1,1a1,1 0 0,1 -1,1a1,1 0 0,1 -1,-1a1,1 0 0,1 1,-1M33 72h2a1,1 0 0,1 1,1v2a1,1 0 0,1 -1,1h-2a1,1 0 0,1 -1,-1v-2a1,1 0 0,1 1,-1M35 8a1,1 0 0,0 1,-1a1,1 0 0,1 1,-1a1,1 0 0,1 1,1a1,1 0 0,0 1,1a1,1 0 0,1 1,1a1,1 0 0,1 -1,1h-2a1,1 0 0,0 -1,1a1,1 0 0,1 -1,1a1,1 0 0,1 -1,-1v-2a1,1 0 0,1 1,-1M35 14a1,1 0 0,0 1,-1a1,1 0 0,1 1,-1a1,1 0 0,1 1,1a1,1 0 0,0 1,1a1,1 0 0,1 1,1a1,1 0 0,1 -1,1a1,1 0 0,0 -1,1a1,1 0 0,1 -1,1a1,1 0 0,1 -1,-1a1,1 0 0,0 -1,-1a1,1 0 0,1 -1,-1a1,1 0 0,1 1,-1M35 62h2h2a1,1 0 0,1 1,1v2a1,1 0 0,1 -1,1a1,1 0 0,0 -1,1a1,1 0 0,0 1,1h2a1,1 0 0,0 1,-1a1,1 0 0,1 1,-1a1,1 0 0,1 1,1a1,1 0 0,0 1,1a1,1 0 0,1 1,1a1,1 0 0,0 1,1a1,1 0 0,1 1,1a1,1 0 0,0 1,1a1,1 0 0,1 1,1a1,1 0 0,0 1,1a1,1 0 0,0 1,-1a1,1 0 0,1 1,-1a1,1 0 0,0 1,-1a1,1 0 0,1 1,-1a1,1 0 0,1 1,1v2a1,1 0 0,1 -1,1a1,1 0 0,0 -1,1v2a1,1 0 0,1 -1,1a1,1 0 0,0 -1,1v2a1,1 0 0,1 -1,1a1,1 0 0,1 -1,-1a1,1 0 0,0 -1,-1h-2a1,1 0 0,0 -1,1a1,1 0 0,1 -1,1h-2a1,1 0 0,1 -1,-1v-2a1,1 0 0,1 1,-1a1,1 0 0,0 1,-1a1,1 0 0,0 -1,-1h-2a1,1 0 0,1 -1,-1a1,1 0 0,1 1,-1h2a1,1 0 0,0 1,-1a1,1 0 0,0 -1,-1h-2a1,1 0 0,1 -1,-1a1,1 0 0,0 -1,-1h-2a1,1 0 0,1 -1,-1a1,1 0 0,0 -1,-1a1,1 0 0,1 -1,-1a1,1 0 0,1 1,-1a1,1 0 0,0 1,-1a1,1 0 0,0 -1,-1a1,1 0 0,1 -1,-1a1,1 0 0,1 1,-1M37 54a1,1 0 0,1 1,1a1,1 0 0,0 1,1a1,1 0 0,1 1,1a1,1 0 0,0 1,1a1,1 0 0,0 1,-1a1,1 0 0,1 1,-1h2a1,1 0 0,0 1,-1a1,1 0 0,1 1,-1h2a1,1 0 0,1 1,1a1,1 0 0,1 -1,1a1,1 0 0,0 -1,1a1,1 0 0,1 -1,1a1,1 0 0,0 -1,1a1,1 0 0,1 -1,1a1,1 0 0,0 -1,1a1,1 0 0,1 -1,1h-2a1,1 0 0,1 -1,-1a1,1 0 0,0 -1,-1h-2a1,1 0 0,1 -1,-1v-2v-2a1,1 0 0,1 1,-1M37 76a1,1 0 0,1 1,1a1,1 0 0,1 -1,1a1,1 0 0,1 -1,-1a1,1 0 0,1 1,-1M39 4h2a1,1 0 0,1 1,1a1,1 0 0,1 -1,1h-2a1,1 0 0,1 -1,-1a1,1 0 0,1 1,-1M39 80a1,1 0 0,1 1,1a1,1 0 0,1 -1,1a1,1 0 0,1 -1,-1a1,1 0 0,1 1,-1M41 0a1,1 0 0,1 1,1a1,1 0 0,1 -1,1a1,1 0 0,1 -1,-1a1,1 0 0,1 1,-1M41 10a1,1 0 0,1 1,1v2a1,1 0 0,1 -1,1a1,1 0 0,1 -1,-1v-2a1,1 0 0,1 1,-1M41 18a1,1 0 0,1 1,1a1,1 0 0,1 -1,1a1,1 0 0,1 -1,-1a1,1 0 0,1 1,-1M41 22a1,1 0 0,0 1,-1a1,1 0 0,1 1,-1a1,1 0 0,0 1,-1a1,1 0 0,0 -1,-1a1,1 0 0,1 -1,-1v-2a1,1 0 0,1 1,-1a1,1 0 0,0 1,-1v-2a1,1 0 0,1 1,-1h2a1,1 0 0,0 1,-1a1,1 0 0,1 1,-1a1,1 0 0,1 1,1v2v2v2a1,1 0 0,1 -1,1a1,1 0 0,0 -1,1a1,1 0 0,1 -1,1a1,1 0 0,0 -1,1a1,1 0 0,0 1,1a1,1 0 0,0 1,-1a1,1 0 0,1 1,-1a1,1 0 0,0 1,-1a1,1 0 0,1 1,-1a1,1 0 0,0 1,-1v-2a1,1 0 0,1 1,-1a1,1 0 0,1 1,1a1,1 0 0,0 1,1a1,1 0 0,1 1,1a1,1 0 0,1 -1,1a1,1 0 0,0 -1,1v2a1,1 0 0,1 -1,1h-2a1,1 0 0,0 -1,1a1,1 0 0,0 1,1a1,1 0 0,1 1,1a1,1 0 0,1 -1,1a1,1 0 0,0 -1,1v2a1,1 0 0,1 -1,1a1,1 0 0,1 -1,-1v-2a1,1 0 0,0 -1,-1h-2h-2h-2a1,1 0 0,1 -1,-1a1,1 0 0,1 1,-1M43 6a1,1 0 0,1 1,1v2a1,1 0 0,1 -1,1a1,1 0 0,1 -1,-1v-2a1,1 0 0,1 1,-1M45 4a1,1 0 0,0 1,-1a1,1 0 0,1 1,-1a1,1 0 0,1 1,1a1,1 0 0,0 1,1a1,1 0 0,0 1,-1a1,1 0 0,0 -1,-1a1,1 0 0,1 -1,-1a1,1 0 0,1 1,-1h2a1,1 0 0,1 1,1a1,1 0 0,0 1,1a1,1 0 0,0 1,-1a1,1 0 0,1 1,-1h2a1,1 0 0,1 1,1a1,1 0 0,1 -1,1a1,1 0 0,0 -1,1a1,1 0 0,1 -1,1h-2a1,1 0 0,0 -1,1a1,1 0 0,0 1,1h2h2a1,1 0 0,1 1,1a1,1 0 0,1 -1,1a1,1 0 0,0 -1,1a1,1 0 0,0 1,1a1,1 0 0,1 1,1v2a1,1 0 0,1 -1,1a1,1 0 0,1 -1,-1a1,1 0 0,0 -1,-1a1,1 0 0,1 -1,-1a1,1 0 0,0 -1,-1a1,1 0 0,1 -1,-1a1,1 0 0,0 -1,-1a1,1 0 0,1 -1,-1a1,1 0 0,0 -1,-1a1,1 0 0,0 -1,1a1,1 0 0,1 -1,1a1,1 0 0,1 -1,-1a1,1 0 0,0 -1,-1a1,1 0 0,1 -1,-1a1,1 0 0,1 1,-1M45 62a1,1 0 0,1 1,1a1,1 0 0,1 -1,1a1,1 0 0,1 -1,-1a1,1 0 0,1 1,-1M47 14a1,1 0 0,0 1,-1a1,1 0 0,0 -1,-1a1,1 0 0,0 -1,1a1,1 0 0,0 1,1M49 58a1,1 0 0,1 1,1a1,1 0 0,1 -1,1a1,1 0 0,1 -1,-1a1,1 0 0,1 1,-1M49 64a1,1 0 0,1 1,1a1,1 0 0,1 -1,1a1,1 0 0,1 -1,-1a1,1 0 0,1 1,-1M49 68a1,1 0 0,0 1,-1a1,1 0 0,1 1,-1h2a1,1 0 0,1 1,1a1,1 0 0,1 -1,1a1,1 0 0,0 -1,1v2a1,1 0 0,1 -1,1a1,1 0 0,1 -1,-1a1,1 0 0,0 -1,-1a1,1 0 0,1 -1,-1a1,1 0 0,1 1,-1M49 78a1,1 0 0,0 1,-1a1,1 0 0,0 -1,-1a1,1 0 0,0 -1,1a1,1 0 0,0 1,1M51 56a1,1 0 0,1 1,1a1,1 0 0,1 -1,1a1,1 0 0,1 -1,-1a1,1 0 0,1 1,-1M51 60h2a1,1 0 0,1 1,1a1,1 0 0,1 -1,1a1,1 0 0,0 -1,1a1,1 0 0,1 -1,1a1,1 0 0,1 -1,-1v-2a1,1 0 0,1 1,-1M53 24a1,1 0 0,1 1,1a1,1 0 0,0 1,1a1,1 0 0,0 1,-1a1,1 0 0,0 -1,-1a1,1 0 0,1 -1,-1a1,1 0 0,1 1,-1h2a1,1 0 0,1 1,1a1,1 0 0,0 1,1a1,1 0 0,0 1,-1a1,1 0 0,1 1,-1a1,1 0 0,1 1,1a1,1 0 0,0 1,1a1,1 0 0,1 1,1v2a1,1 0 0,1 -1,1h-2h-2h-2h-2h-2a1,1 0 0,1 -1,-1v-2a1,1 0 0,1 1,-1M55 30h2h2h2a1,1 0 0,1 1,1a1,1 0 0,0 1,1a1,1 0 0,1 1,1a1,1 0 0,1 -1,1h-2h-2h-2a1,1 0 0,1 -1,-1a1,1 0 0,0 -1,-1a1,1 0 0,1 -1,-1a1,1 0 0,1 1,-1M55 38a1,1 0 0,1 1,1a1,1 0 0,1 -1,1a1,1 0 0,1 -1,-1a1,1 0 0,1 1,-1M55 46a1,1 0 0,0 1,-1a1,1 0 0,1 1,-1a1,1 0 0,1 1,1v2a1,1 0 0,1 -1,1h-2a1,1 0 0,1 -1,-1a1,1 0 0,1 1,-1M55 56a1,1 0 0,1 1,1a1,1 0 0,1 -1,1a1,1 0 0,1 -1,-1a1,1 0 0,1 1,-1M55 78a1,1 0 0,0 1,-1v-2a1,1 0 0,1 1,-1a1,1 0 0,1 1,1v2a1,1 0 0,0 1,1a1,1 0 0,1 1,1v2a1,1 0 0,1 -1,1a1,1 0 0,1 -1,-1a1,1 0 0,0 -1,-1h-2a1,1 0 0,1 -1,-1a1,1 0 0,1 1,-1M57 18h2a1,1 0 0,1 1,1v2a1,1 0 0,1 -1,1a1,1 0 0,1 -1,-1a1,1 0 0,0 -1,-1a1,1 0 0,1 -1,-1a1,1 0 0,1 1,-1M57 58a1,1 0 0,0 1,-1v-2v-2v-2v-2a1,1 0 0,1 1,-1a1,1 0 0,1 1,1v2v2a1,1 0 0,0 1,1a1,1 0 0,1 1,1a1,1 0 0,1 -1,1a1,1 0 0,0 -1,1v2a1,1 0 0,1 -1,1a1,1 0 0,0 -1,1a1,1 0 0,0 1,1h2a1,1 0 0,1 1,1v2v2v2a1,1 0 0,1 -1,1h-2a1,1 0 0,1 -1,-1a1,1 0 0,0 -1,-1a1,1 0 0,1 -1,-1v-2v-2v-2v-2a1,1 0 0,1 1,-1M59 4a1,1 0 0,0 1,-1a1,1 0 0,1 1,-1a1,1 0 0,1 1,1v2a1,1 0 0,1 -1,1h-2a1,1 0 0,1 -1,-1a1,1 0 0,1 1,-1M59 8a1,1 0 0,1 1,1a1,1 0 0,1 -1,1a1,1 0 0,1 -1,-1a1,1 0 0,1 1,-1M59 14a1,1 0 0,1 1,1a1,1 0 0,1 -1,1a1,1 0 0,1 -1,-1a1,1 0 0,1 1,-1M59 36h2a1,1 0 0,1 1,1a1,1 0 0,0 1,1a1,1 0 0,1 1,1a1,1 0 0,1 -1,1a1,1 0 0,0 -1,1v2a1,1 0 0,0 1,1a1,1 0 0,1 1,1a1,1 0 0,0 1,1a1,1 0 0,1 1,1v2a1,1 0 0,1 -1,1a1,1 0 0,1 -1,-1a1,1 0 0,0 -1,-1h-2a1,1 0 0,1 -1,-1v-2v-2v-2a1,1 0 0,0 -1,-1a1,1 0 0,1 -1,-1v-2a1,1 0 0,1 1,-1M59 66a1,1 0 0,0 1,-1a1,1 0 0,0 -1,-1a1,1 0 0,0 -1,1a1,1 0 0,0 1,1M59 72h2a1,1 0 0,1 1,1v2a1,1 0 0,1 -1,1a1,1 0 0,1 -1,-1a1,1 0 0,0 -1,-1a1,1 0 0,1 -1,-1a1,1 0 0,1 1,-1M61 10h2a1,1 0 0,0 1,-1a1,1 0 0,0 -1,-1a1,1 0 0,1 -1,-1a1,1 0 0,1 1,-1a1,1 0 0,0 1,-1v-2a1,1 0 0,0 -1,-1a1,1 0 0,1 -1,-1a1,1 0 0,1 1,-1h2a1,1 0 0,1 1,1v2v2v2v2v2v2a1,1 0 0,1 -1,1a1,1 0 0,1 -1,-1a1,1 0 0,0 -1,-1a1,1 0 0,0 -1,1a1,1 0 0,1 -1,1a1,1 0 0,1 -1,-1v-2a1,1 0 0,1 1,-1M63 16a1,1 0 0,1 1,1a1,1 0 0,1 -1,1a1,1 0 0,1 -1,-1a1,1 0 0,1 1,-1M63 20a1,1 0 0,1 1,1a1,1 0 0,1 -1,1a1,1 0 0,1 -1,-1a1,1 0 0,1 1,-1M63 50a1,1 0 0,1 1,1a1,1 0 0,1 -1,1a1,1 0 0,1 -1,-1a1,1 0 0,1 1,-1M63 70a1,1 0 0,0 1,-1v-2v-2a1,1 0 0,1 1,-1a1,1 0 0,0 1,-1a1,1 0 0,1 1,-1a1,1 0 0,1 1,1a1,1 0 0,0 1,1h2a1,1 0 0,0 1,-1a1,1 0 0,1 1,-1a1,1 0 0,1 1,1v2v2v2v2v2a1,1 0 0,0 1,1a1,1 0 0,1 1,1a1,1 0 0,0 1,1a1,1 0 0,1 1,1a1,1 0 0,1 -1,1a1,1 0 0,0 -1,1a1,1 0 0,1 -1,1a1,1 0 0,1 -1,-1a1,1 0 0,0 -1,-1a1,1 0 0,1 -1,-1v-2a1,1 0 0,0 -1,-1a1,1 0 0,0 -1,1a1,1 0 0,1 -1,1h-2a1,1 0 0,1 -1,-1a1,1 0 0,0 -1,-1a1,1 0 0,1 -1,-1a1,1 0 0,0 -1,-1a1,1 0 0,1 -1,-1a1,1 0 0,1 1,-1M63 76a1,1 0 0,1 1,1a1,1 0 0,0 1,1a1,1 0 0,1 1,1a1,1 0 0,0 1,1a1,1 0 0,0 1,-1a1,1 0 0,1 1,-1h2a1,1 0 0,1 1,1a1,1 0 0,0 1,1a1,1 0 0,1 1,1a1,1 0 0,1 -1,1h-2h-2h-2h-2a1,1 0 0,1 -1,-1a1,1 0 0,0 -1,-1a1,1 0 0,1 -1,-1v-2a1,1 0 0,1 1,-1M65 18h2h2a1,1 0 0,0 1,-1a1,1 0 0,1 1,-1h2h2a1,1 0 0,1 1,1a1,1 0 0,0 1,1a1,1 0 0,0 1,-1a1,1 0 0,1 1,-1h2a1,1 0 0,1 1,1v2a1,1 0 0,1 -1,1a1,1 0 0,0 -1,1a1,1 0 0,1 -1,1a1,1 0 0,0 -1,1a1,1 0 0,1 -1,1a1,1 0 0,1 -1,-1a1,1 0 0,0 -1,-1a1,1 0 0,1 -1,-1v-2a1,1 0 0,0 -1,-1a1,1 0 0,0 -1,1a1,1 0 0,1 -1,1h-2a1,1 0 0,0 -1,1v2a1,1 0 0,0 1,1a1,1 0 0,0 1,-1a1,1 0 0,1 1,-1a1,1 0 0,1 1,1v2a1,1 0 0,1 -1,1h-2a1,1 0 0,0 -1,1a1,1 0 0,1 -1,1a1,1 0 0,1 -1,-1v-2v-2v-2a1,1 0 0,0 -1,-1a1,1 0 0,1 -1,-1a1,1 0 0,1 1,-1M65 30a1,1 0 0,1 1,1a1,1 0 0,1 -1,1a1,1 0 0,1 -1,-1a1,1 0 0,1 1,-1M65 34a1,1 0 0,1 1,1v2a1,1 0 0,1 -1,1a1,1 0 0,1 -1,-1v-2a1,1 0 0,1 1,-1M65 40a1,1 0 0,1 1,1a1,1 0 0,1 -1,1a1,1 0 0,1 -1,-1a1,1 0 0,1 1,-1M65 52h2h2h2a1,1 0 0,1 1,1v2v2v2v2a1,1 0 0,1 -1,1a1,1 0 0,1 -1,-1a1,1 0 0,0 -1,-1a1,1 0 0,1 -1,-1a1,1 0 0,1 1,-1a1,1 0 0,0 1,-1v-2a1,1 0 0,0 -1,-1a1,1 0 0,0 -1,1a1,1 0 0,1 -1,1h-2a1,1 0 0,1 -1,-1v-2a1,1 0 0,1 1,-1M65 58a1,1 0 0,1 1,1a1,1 0 0,1 -1,1a1,1 0 0,1 -1,-1a1,1 0 0,1 1,-1M67 38a1,1 0 0,1 1,1a1,1 0 0,1 -1,1a1,1 0 0,1 -1,-1a1,1 0 0,1 1,-1M67 42a1,1 0 0,0 1,-1a1,1 0 0,1 1,-1a1,1 0 0,1 1,1a1,1 0 0,0 1,1a1,1 0 0,1 1,1v2v2a1,1 0 0,1 -1,1a1,1 0 0,1 -1,-1a1,1 0 0,0 -1,-1h-2a1,1 0 0,1 -1,-1v-2a1,1 0 0,1 1,-1M67 72h2h2a1,1 0 0,0 1,-1v-2v-2a1,1 0 0,0 -1,-1h-2h-2a1,1 0 0,0 -1,1v2v2a1,1 0 0,0 1,1M69 28a1,1 0 0,1 1,1a1,1 0 0,0 1,1a1,1 0 0,1 1,1v2v2a1,1 0 0,1 -1,1a1,1 0 0,0 -1,1a1,1 0 0,1 -1,1a1,1 0 0,1 -1,-1v-2a1,1 0 0,1 1,-1a1,1 0 0,0 1,-1a1,1 0 0,0 -1,-1a1,1 0 0,1 -1,-1v-2a1,1 0 0,1 1,-1M69 48a1,1 0 0,1 1,1a1,1 0 0,1 -1,1a1,1 0 0,1 -1,-1a1,1 0 0,1 1,-1M69 68a1,1 0 0,1 1,1a1,1 0 0,1 -1,1a1,1 0 0,1 -1,-1a1,1 0 0,1 1,-1M71 38a1,1 0 0,1 1,1a1,1 0 0,1 -1,1a1,1 0 0,1 -1,-1a1,1 0 0,1 1,-1M73 28a1,1 0 0,0 1,-1v-2a1,1 0 0,1 1,-1a1,1 0 0,1 1,1v2v2a1,1 0 0,1 -1,1h-2a1,1 0 0,1 -1,-1a1,1 0 0,1 1,-1M73 36h2a1,1 0 0,1 1,1v2a1,1 0 0,1 -1,1a1,1 0 0,1 -1,-1a1,1 0 0,0 -1,-1a1,1 0 0,1 -1,-1a1,1 0 0,1 1,-1M75 32a1,1 0 0,1 1,1a1,1 0 0,1 -1,1a1,1 0 0,1 -1,-1a1,1 0 0,1 1,-1M75 42a1,1 0 0,1 1,1v2a1,1 0 0,0 1,1a1,1 0 0,1 1,1a1,1 0 0,1 -1,1a1,1 0 0,0 -1,1v2a1,1 0 0,1 -1,1a1,1 0 0,1 -1,-1v-2v-2v-2v-2a1,1 0 0,1 1,-1M75 60a1,1 0 0,0 1,-1a1,1 0 0,1 1,-1h2h2a1,1 0 0,1 1,1v2a1,1 0 0,1 -1,1a1,1 0 0,1 -1,-1a1,1 0 0,0 -1,-1a1,1 0 0,0 -1,1a1,1 0 0,1 -1,1h-2a1,1 0 0,1 -1,-1a1,1 0 0,1 1,-1M77 34a1,1 0 0,0 1,-1a1,1 0 0,1 1,-1h2a1,1 0 0,1 1,1v2v2a1,1 0 0,1 -1,1a1,1 0 0,0 -1,1v2a1,1 0 0,0 1,1a1,1 0 0,1 1,1a1,1 0 0,1 -1,1a1,1 0 0,0 -1,1a1,1 0 0,1 -1,1a1,1 0 0,1 -1,-1v-2a1,1 0 0,0 -1,-1a1,1 0 0,1 -1,-1a1,1 0 0,1 1,-1a1,1 0 0,0 1,-1v-2a1,1 0 0,0 -1,-1a1,1 0 0,1 -1,-1a1,1 0 0,1 1,-1M77 64a1,1 0 0,0 1,-1a1,1 0 0,1 1,-1a1,1 0 0,1 1,1a1,1 0 0,0 1,1a1,1 0 0,1 1,1v2a1,1 0 0,1 -1,1h-2a1,1 0 0,1 -1,-1a1,1 0 0,0 -1,-1a1,1 0 0,1 -1,-1a1,1 0 0,1 1,-1M77 68a1,1 0 0,1 1,1a1,1 0 0,0 1,1h2a1,1 0 0,1 1,1v2a1,1 0 0,1 -1,1a1,1 0 0,1 -1,-1a1,1 0 0,0 -1,-1h-2a1,1 0 0,1 -1,-1v-2a1,1 0 0,1 1,-1M79 24a1,1 0 0,1 1,1a1,1 0 0,1 -1,1a1,1 0 0,1 -1,-1a1,1 0 0,1 1,-1M79 50a1,1 0 0,1 1,1a1,1 0 0,1 -1,1a1,1 0 0,1 -1,-1a1,1 0 0,1 1,-1M79 54a1,1 0 0,1 1,1a1,1 0 0,1 -1,1a1,1 0 0,1 -1,-1a1,1 0 0,1 1,-1M79 78a1,1 0 0,1 1,1v2a1,1 0 0,1 -1,1a1,1 0 0,1 -1,-1v-2a1,1 0 0,1 1,-1M81 28a1,1 0 0,1 1,1a1,1 0 0,1 -1,1a1,1 0 0,1 -1,-1a1,1 0 0,1 1,-1M81 52a1,1 0 0,1 1,1a1,1 0 0,1 -1,1a1,1 0 0,1 -1,-1a1,1 0 0,1 1,-1M81 76a1,1 0 0,1 1,1a1,1 0 0,1 -1,1a1,1 0 0,1 -1,-1a1,1 0 0,1 1,-1" fill-rule="evenodd" fill="#1A1A1A" id="svg_1" /></g><path d="M3,0h8a3,3 0 0,1 3,3v8a3,3 0 0,1 -3,3h-8a3,3 0 0,1 -3,-3v-8a3,3 0 0,1 3,-3zM4.1,2a2.0999999999999996,2.0999999999999996 0 0,0 -2.0999999999999996,2.0999999999999996v5.800000000000001a2.0999999999999996,2.0999999999999996 0 0,0 2.0999999999999996,2.0999999999999996h5.800000000000001a2.0999999999999996,2.0999999999999996 0 0,0 2.0999999999999996,-2.0999999999999996v-5.800000000000001a2.0999999999999996,2.0999999999999996 0 0,0 -2.0999999999999996,-2.0999999999999996h-5.800000000000001zM5.5,4h3a1.5,1.5 0 0,1 1.5,1.5v3a1.5,1.5 0 0,1 -1.5,1.5h-3a1.5,1.5 0 0,1 -1.5,-1.5v-3a1.5,1.5 0 0,1 1.5,-1.5z" fill="#1A1A1A" fill-rule="evenodd"/>
<path d="M71,0h8a3,3 0 0,1 3,3v8a3,3 0 0,1 -3,3h-8a3,3 0 0,1 -3,-3v-8a3,3 0 0,1 3,-3zM72.1,2a2.0999999999999996,2.0999999999999996 0 0,0 -2.0999999999999996,2.0999999999999996v5.800000000000001a2.0999999999999996,2.0999999999999996 0 0,0 2.0999999999999996,2.0999999999999996h5.800000000000001a2.0999999999999996,2.0999999999999996 0 0,0 2.0999999999999996,-2.0999999999999996v-5.800000000000001a2.0999999999999996,2.0999999999999996 0 0,0 -2.0999999999999996,-2.0999999999999996h-5.800000000000001zM73.5,4h3a1.5,1.5 0 0,1 1.5,1.5v3a1.5,1.5 0 0,1 -1.5,1.5h-3a1.5,1.5 0 0,1 -1.5,-1.5v-3a1.5,1.5 0 0,1 1.5,-1.5z" fill="#1A1A1A" fill-rule="evenodd"/>
<path d="M3,68h8a3,3 0 0,1 3,3v8a3,3 0 0,1 -3,3h-8a3,3 0 0,1 -3,-3v-8a3,3 0 0,1 3,-3zM4.1,70a2.0999999999999996,2.0999999999999996 0 0,0 -2.0999999999999996,2.0999999999999996v5.800000000000001a2.0999999999999996,2.0999999999999996 0 0,0 2.0999999999999996,2.0999999999999996h5.800000000000001a2.0999999999999996,2.0999999999999996 0 0,0 2.0999999999999996,-2.0999999999999996v-5.800000000000001a2.0999999999999996,2.0999999999999996 0 0,0 -2.0999999999999996,-2.0999999999999996h-5.800000000000001zM5.5,72h3a1.5,1.5 0 0,1 1.5,1.5v3a1.5,1.5 0 0,1 -1.5,1.5h-3a1.5,1.5 0 0,1 -1.5,-1.5v-3a1.5,1.5 0 0,1 1.5,-1.5z" fill="#1A1A1A" fill-rule="evenodd"/><svg width="20.50" height="20.50" x="30.75" y="30.75" fill="none" viewBox="0 0 1000 1000">
      <path fill="#1A1A1A" d="M438.215 281.252L295.715 134.768L212.991 219.484L362.464 361.984H152.22V479.577H363.46L212.991 625.741L295.715 708.786L499.982 503.523L704.249 708.786L786.973 626.062L636.504 479.898H847.78V361.984H637.536L787.009 219.484L704.285 134.768L561.785 281.252V73H438.215V281.252ZM561.785 647.979H438.215V927H561.785V647.979Z" />
    </svg></svg>